<?xml version="1.0" encoding="utf-8"?>
<!-- Generator: Adobe Illustrator 15.1.0, SVG Export Plug-In  -->
<!DOCTYPE svg PUBLIC "-//W3C//DTD SVG 1.1//EN" "http://www.w3.org/Graphics/SVG/1.1/DTD/svg11.dtd" [
	<!ENTITY ns_flows "http://ns.adobe.com/Flows/1.0/">
]>
<svg version="1.1"
	 xmlns="http://www.w3.org/2000/svg" xmlns:xlink="http://www.w3.org/1999/xlink" xmlns:a="http://ns.adobe.com/AdobeSVGViewerExtensions/3.0/"
	 x="0px" y="0px" width="31px" height="33px" viewBox="-0.2 -0.5 31 33"
	 overflow="visible" enable-background="new -0.2 -0.5 31 33" xml:space="preserve">
<defs>
</defs>
<path fill="#FFFFFF" d="M22.96,28.673H4.846V8.084H22.96v3.64l0.912-0.769V7.158h-1.04V5.818c0-1.528-1.23-2.781-2.735-2.781h-5.608
	C14.441,1.353,13.086,0,11.417,0C9.748,0,8.392,1.353,8.344,3.038H2.736C1.232,3.038,0,4.29,0,5.818v20.006
	c0,1.528,1.232,2.78,2.736,2.78h1.2V29.6h19.937v-7.813l-0.912,0.925V28.673z M20.553,5.818v1.339H16.88
	c-0.012-0.712-0.382-1.315-0.876-1.804h4.093C20.344,5.354,20.553,5.564,20.553,5.818z M11.417,1.853
	c0.691,0,1.253,0.572,1.253,1.275c0,0.702-0.562,1.276-1.253,1.276s-1.254-0.574-1.254-1.276
	C10.163,2.424,10.726,1.853,11.417,1.853z M2.736,26.287c-0.247,0-0.456-0.211-0.456-0.463V5.818c0-0.254,0.208-0.465,0.456-0.465
	h4.097c-0.495,0.49-0.867,1.091-0.877,1.804H3.936v19.129H2.736z"/>
<polygon fill="#FFFFFF" points="14.969,14.979 11.5,18.629 11.5,18.629 18.038,25.507 29.086,13.888 26.561,11.187 18.109,18.567 
	"/>
<polygon fill="#FFED00" points="27.757,31.968 23.936,29.935 20.142,32.017 20.842,27.654 17.744,24.591 21.998,23.929 
	23.875,19.953 25.804,23.904 30.063,24.515 27.002,27.618 "/>
</svg>
